<svg xmlns="http://www.w3.org/2000/svg" fill="none" viewBox="0 0 24 24" id="Done-Outline--Streamline-Rounded-Material" height="24" width="24">
  <desc>
    Done Outline Streamline Icon: https://streamlinehq.com
  </desc>
  <path fill="#000000" d="m9.525 17.95005 11.325 -11.325 -1.075 -1.075 -10.25 10.25 -5.27501 -5.275 -1.075 1.075 6.35001 6.35Zm-1.05 1.075 -6.37501 -6.375c-0.147835 -0.14935 -0.255585 -0.31415 -0.32325 -0.4945 -0.067835 -0.1805 -0.10175 -0.364 -0.10175 -0.5505 0 -0.18665 0.033915 -0.37225 0.10175 -0.55675 0.067665 -0.1845 0.175415 -0.3506 0.32325 -0.49825l1.09125 -1.09125c0.15583 -0.15585 0.325415 -0.2671 0.50875 -0.33375 0.18333 -0.06665 0.366665 -0.1 0.55 -0.1 0.18333 0 0.366665 0.03335 0.55 0.1 0.18333 0.06665 0.35001 0.175 0.50001 0.325l4.225 4.225 9.2 -9.2c0.15 -0.15 0.31665 -0.258335 0.5 -0.325 0.1833 -0.06667 0.36665 -0.1 0.55 -0.1 0.1833 0 0.36665 0.03333 0.55 0.1 0.1833 0.066665 0.35155 0.171915 0.50475 0.31575l1.0905 1.09875c0.15315 0.157 0.26305 0.32715 0.32975 0.5105 0.06665 0.18335 0.1 0.36665 0.1 0.55 0 0.18335 -0.03395 0.36635 -0.10175 0.549 -0.0677 0.18285 -0.17545 0.34985 -0.32325 0.501l-11.35 11.35c-0.15 0.15 -0.3167 0.25835 -0.5 0.325 -0.18335 0.06665 -0.3667 0.1 -0.55 0.1 -0.18335 0 -0.3667 -0.03335 -0.55 -0.1 -0.18335 -0.06665 -0.35 -0.175 -0.5 -0.325Z" stroke-width="0.5"></path>
</svg>