<svg xmlns="http://www.w3.org/2000/svg" xmlns:xlink="http://www.w3.org/1999/xlink" width="720" height="157" viewBox="0 0 720 157">
  <defs>
    <clipPath id="clip-path">
      <rect id="Rectangle_21722" data-name="Rectangle 21722" width="720" height="157" transform="translate(195.839 715.738)" fill="none"/>
    </clipPath>
    <linearGradient id="linear-gradient" x1="0.5" x2="0.5" y2="1.287" gradientUnits="objectBoundingBox">
      <stop offset="0" stop-color="#eef5f8"/>
      <stop offset="1" stop-color="#fff" stop-opacity="0"/>
    </linearGradient>
    <clipPath id="clip-path-2">
      <rect id="Rectangle_12807" data-name="Rectangle 12807" width="236" height="195" transform="translate(-241 0)" fill="#fff"/>
    </clipPath>
    <clipPath id="clip-path-3">
      <rect id="Rectangle_12806" data-name="Rectangle 12806" width="736" height="191" transform="translate(0 0)" fill="none" stroke="#707070" stroke-width="1"/>
    </clipPath>
    <linearGradient id="linear-gradient-2" x1="0.5" x2="0.5" y2="1.287" gradientUnits="objectBoundingBox">
      <stop offset="0" stop-color="#d3f1f9"/>
      <stop offset="1" stop-color="#fff" stop-opacity="0"/>
    </linearGradient>
  </defs>
  <g id="Mask_Group_16" data-name="Mask Group 16" transform="translate(-195.839 -715.738)" clip-path="url(#clip-path)">
    <g id="Group_93801" data-name="Group 93801">
      <g id="Ellipse_2" data-name="Ellipse 2" transform="translate(-194.161 719.738)" stroke="rgba(0,143,191,0.2)" stroke-width="2" fill="url(#linear-gradient)">
        <ellipse cx="750" cy="118" rx="750" ry="118" stroke="none"/>
        <ellipse cx="750" cy="118" rx="749" ry="117" fill="none"/>
      </g>
      <g id="Mask_Group_20" data-name="Mask Group 20" transform="translate(678.839 715.738)" clip-path="url(#clip-path-2)">
        <g id="Mask_Group_19" data-name="Mask Group 19" transform="translate(-491 4)" clip-path="url(#clip-path-3)">
          <g id="Path_358117" data-name="Path 358117" transform="translate(-382.839 0.187)">
            <path id="Path_209609" data-name="Path 209609" d="M749.357,234.089c101.207,0,199.384-3.113,291.805-9.253,44.419-2.95,87.26-6.6,127.333-10.855,39.688-4.212,77.01-9.049,110.925-14.375s64.691-11.187,91.492-17.418c27.041-6.287,50.261-13.006,69.015-19.97,19.048-7.074,33.662-14.464,43.436-21.966,9.854-7.564,14.85-15.288,14.85-22.957s-5-15.394-14.85-22.957c-9.774-7.5-24.388-14.893-43.436-21.966-18.754-6.964-41.974-13.683-69.015-19.97-26.8-6.231-57.584-12.091-91.492-17.417S1208.184,24.82,1168.5,20.609c-40.073-4.252-82.914-7.9-127.333-10.856C948.742,3.613,850.564.5,749.357.5S549.973,3.613,457.55,9.753c-44.417,2.951-87.258,6.6-127.331,10.856-39.688,4.211-77.01,9.048-110.925,14.375S154.6,46.17,127.8,52.4c-27.041,6.287-50.263,13.006-69.017,19.97C39.739,79.444,25.123,86.835,15.35,94.337,5.5,101.9.5,109.625.5,117.294s5,15.394,14.85,22.957c9.773,7.5,24.389,14.893,43.436,21.966,18.754,6.964,41.975,13.683,69.017,19.97,26.8,6.231,57.582,12.091,91.492,17.418s71.237,10.162,110.925,14.375c40.073,4.252,82.914,7.9,127.331,10.855C549.973,230.976,648.151,234.089,749.357,234.089Z" transform="translate(0.481 0.481)" fill="url(#linear-gradient-2)"/>
            <path id="Path_209610" data-name="Path 209610" d="M749.839,1.963c101.185,0,199.339,3.112,291.74,9.251,44.405,2.95,87.234,6.6,127.294,10.852,39.673,4.21,76.978,9.044,110.878,14.369,33.884,5.322,64.643,11.178,91.421,17.4,27,6.278,50.181,12.984,68.9,19.934,18.956,7.039,33.484,14.382,43.18,21.825,9.6,7.368,14.466,14.83,14.466,22.179s-4.867,14.811-14.466,22.179c-9.7,7.442-24.224,14.785-43.18,21.825-18.715,6.95-41.895,13.656-68.9,19.934-26.778,6.226-57.537,12.081-91.421,17.4-33.9,5.325-71.205,10.16-110.878,14.369-40.059,4.252-82.889,7.9-127.294,10.853-92.4,6.138-190.555,9.251-291.74,9.251S550.5,230.476,458.1,224.337c-44.405-2.95-87.234-6.6-127.294-10.853-39.673-4.209-76.978-9.043-110.878-14.369-33.884-5.321-64.643-11.177-91.421-17.4-27-6.278-50.18-12.984-68.895-19.934C40.654,154.74,26.125,147.4,16.43,139.955c-9.6-7.368-14.467-14.83-14.467-22.179S6.829,102.965,16.43,95.6c9.695-7.442,24.224-14.785,43.181-21.825,18.714-6.95,41.895-13.656,68.895-19.934,26.778-6.226,57.537-12.081,91.421-17.4,33.9-5.325,71.205-10.159,110.878-14.369,40.06-4.251,82.889-7.9,127.294-10.852,92.4-6.139,190.555-9.251,291.74-9.251m0-1.963C335.714,0,0,52.73,0,117.776S335.714,235.552,749.839,235.552s749.839-52.73,749.839-117.776S1163.964,0,749.839,0Z" fill="#008fbf"/>
          </g>
        </g>
      </g>
    </g>
  </g>
</svg>
